<?xml version="1.0" encoding="UTF-8" standalone="no"?>
<svg xmlns="http://www.w3.org/2000/svg" width="612.47998" height="180.48">
<path d="m 221.11999,174.28703 c -4.32267,-1.65855 -7.65386,-3.55236 -10.24,-5.82152 -3.30625,-2.90102 -3.96785,-4.08981 -3.98582,-7.16195 -0.0129,-2.20299 0.12271,-2.7361 1.48988,-5.85764 0.82723,-1.88874 2.07534,-4.26474 2.77359,-5.28 1.74615,-2.5389 9.18881,-9.81578 12.67286,-12.39058 2.99128,-2.21063 4.08535,-2.52665 4.26941,-1.23322 0.0756,0.53105 -0.58715,1.34739 -2.72,3.35051 -7.64485,7.17985 -10.68574,10.67202 -12.69919,14.58379 -0.79917,1.55265 -1.29014,5.77458 -0.85811,7.37902 0.60916,2.26225 3.09477,4.61321 6.6812,6.31923 3.96888,1.88796 7.48879,3.01607 9.42682,3.02124 3.9373,0.0105 9.16716,-4.83563 16.65103,-15.42932 3.96839,-5.61741 12.15605,-19.50065 15.949,-27.0436 5.29205,-9.23513 8.79254,-16.79913 11.8835,-26.73913 0.50885,-1.62317 0.59569,-2.314334 0.34174,-2.719998 -0.59948,-0.957654 -2.13299,-0.824166 -4.55731,0.396701 -3.02733,1.524537 -6.95151,2.816417 -7.8195,2.574257 -2.12905,-0.59399 -3.0991,-1.78548 -3.0991,-3.806567 0.69358,-2.849588 2.37497,-4.190173 3.52,-7.016615 0,-1.524323 -1.31114,-1.870179 -3.86299,-1.018982 -0.77936,0.259962 -4.00901,0.990115 -7.17701,1.62256 -11.64013,2.323792 -12.17056,2.515382 -23.56171,8.510394 -5.33556,2.80803 -6.8576,3.47439 -7.93589,3.47439 -1.53873,0 -2.72668,-0.5399 -3.8624,-1.75538 -0.74985,-0.80251 -0.8,-1.07022 -0.8,-4.270399 0,-2.949923 0.10192,-3.613491 0.74942,-4.879555 0.89008,-1.740368 0.83004,-2.971956 -0.15173,-3.111984 -0.47357,-0.06754 -1.41203,0.568828 -3.0674,2.08 -7.9832,7.287782 -13.22968,11.645698 -16.95669,14.084838 -5.37922,3.52044 -5.91497,3.74321 -7.30164,3.03621 -0.58656,-0.29905 -1.34998,-0.93057 -1.69649,-1.40338 -0.57121,-0.77937 -0.59191,-0.99581 -0.22177,-2.31783 0.32689,-1.16753 0.3285,-1.5543 0.008,-1.94035 -0.55424,-0.66782 -1.04894,-0.61103 -4.1618,0.47783 -5.22006,1.82595 -7.94611,0.80505 -7.02129,-2.62945 0.192,-0.71307 0.25996,-1.651673 0.15101,-2.085779 -0.17565,-0.699853 -0.33247,-0.772173 -1.38391,-0.638265 -0.65219,0.08306 -3.70581,1.253408 -6.78581,2.600764 -6.12836,2.68087 -11.0947,4.35273 -12.93001,4.35273 -0.83551,0 -1.41557,-0.23649 -1.9907,-0.81162 -0.69441,-0.69442 -0.781,-0.99282 -0.5996,-2.0665 0.52309,-3.096158 -0.79972,-3.358501 -4.32842,-0.85843 -1.32238,0.93691 -3.12139,2.11617 -3.99779,2.62058 -0.87641,0.50442 -2.38547,1.43802 -3.35347,2.07467 -3.4902,2.29549 -8.21902,4.8013 -9.06072,4.8013 -1.11021,0 -2.13977,-1.0404 -2.1375,-2.16 0.004,-1.80048 0.69618,-3.25056 2.65242,-5.55387 3.84303,-4.757675 7.15306,-9.98012 11.4258,-14.352133 3.97776,-4.005741 8.49456,-5.913591 10.24658,-4.328039 1.56858,1.419546 0.14698,3.533037 -3.44156,5.116592 -2.19975,0.970704 -4.06363,2.744148 -5.89816,5.611978 -1.25927,1.930422 -3.42574,3.597958 -3.99209,5.583002 0.79513,2.07208 8.06236,-2.695815 16.36522,-10.736916 4.27465,-4.139888 5.65034,-4.920582 7.05217,-4.00207 0.43331,0.283917 0.78598,0.76489 0.78371,1.068832 -0.008,1.09049 -1.29614,4.644874 -2.39552,6.610746 -1.46031,2.611273 -1.48794,4.235849 -0.0809,4.754972 0.63731,0.23513 4.25427,-0.80656 6.15053,-1.77136 3.55789,-1.810217 14.95571,-5.731923 16.29773,-5.607644 1.54728,0.143283 1.76487,0.955052 0.77469,2.890041 -1.10794,2.165082 -1.19236,2.490483 -0.87068,3.355869 0.38287,1.029987 1.47135,0.935402 5.93087,-0.515376 3.20414,-1.042378 4.36063,-1.617296 7.40261,-3.68 1.98286,-1.344544 3.89086,-2.444624 4.24,-2.444624 1.32737,0 2.39277,1.966947 1.66988,3.082947 -0.1293,0.199623 -0.91311,0.680669 -1.7418,1.068992 -3.25623,1.525872 -5.68867,4.808061 -3.56327,4.808061 0.64311,0 1.50538,-0.664256 3.54224,-2.728816 1.56184,-1.583075 3.30798,-3.018256 4.15878,-3.418182 12.64642,-9.313379 23.84069,-23.694042 34.02813,-32.836197 2.94602,-2.643747 4.99404,-6.62985 8.01856,-8.722434 2.93649,-1.994128 4.76226,-2.00719 4.76226,-0.03407 0,0.609107 -0.65462,1.448272 -2.52811,3.240816 -3.86338,3.696457 -10.40904,10.680771 -11.93879,12.738873 -0.7522,1.012007 -2.31598,2.928672 -3.47505,4.259261 -2.07626,2.383498 -7.59142,10.443363 -8.85502,12.940749 -0.83834,1.656899 -2.64303,7.307885 -2.64303,8.276074 0,1.185232 0.65397,2.748886 1.29262,3.090681 1.2604,0.674544 3.02537,0.338483 5.77048,-1.098733 1.4833,-0.776585 2.97574,-1.782873 3.31654,-2.236192 0.60009,-0.798211 0.60211,-0.879817 0.0642,-2.586204 -0.53424,-1.69482 -0.53235,-1.813901 0.0497,-3.123808 0.79214,-1.782666 3.93245,-5.697021 6.39072,-7.965946 2.05405,-1.895837 7.47374,-4.815942 9.71683,-5.235389 1.39862,-0.261533 2.70683,0.329907 3.92075,1.772576 1.58694,1.885971 0.9649,3.995162 -2.28219,7.73833 -0.72111,0.831264 -1.40592,1.810176 -1.52183,2.175357 -0.4413,1.390406 1.22031,2.027395 3.26131,1.250243 0.49546,-0.188656 2.12483,-0.482205 3.62083,-0.652333 1.496,-0.170125 4.592,-0.727216 6.88,-1.237978 7.41332,-1.654915 9.18702,-1.918179 10.08,-1.496144 0.58709,0.277463 0.8,0.629316 0.8,1.322042 0,0.800579 -0.36453,1.218691 -2.4,2.752781 -2.92015,2.200851 -5.65592,5.048553 -5.94089,6.183949 -0.26467,1.05454 0.3121,1.790694 1.40301,1.790694 3.79353,-1.153152 8.02117,-2.447742 10.87065,-4.910723 C 279.04773,89.380621 281.2126,88 282.07864,88 c 0.82655,0 1.44135,0.574528 1.44135,1.346938 -2.24634,6.173583 -5.45647,12.866012 -7.34676,17.373062 -1.51464,3.61399 -4.9293,10.43336 -6.83353,13.64717 -4.38925,7.76318 -7.53747,14.51946 -12.05645,21.55283 -6.59372,10.42123 -17.61792,28.9202 -28.40259,32.72948 -2.96261,0.95418 -4.51855,0.88151 -7.76067,-0.36245 z m 20.8088,-87.134326 c 1.30962,-0.87279 3.53257,-3.095712 4.01687,-4.016813 1.40396,-2.670237 -1.18607,-3.761414 -3.94082,-1.660262 -2.46799,1.882422 -3.61796,4.545545 -2.46199,5.701513 0.64507,0.645069 1.39284,0.637412 2.38594,-0.02445 z M 67.968123,134.55626 c -0.698794,-1.06649 -0.481271,-1.99936 1.317136,-5.64869 1.480921,-3.00509 2.999657,-4.90905 4.815923,-6.03747 8.995606,-10.46973 12.807165,-22.08654 19.814981,-33.108465 1.486906,-2.016189 1.261143,-3.375465 -0.666288,-4.011577 -2.641475,-0.871764 -7.540108,0.176204 -12.852262,2.749494 -4.619843,2.237923 -6.563807,4.014323 -7.079782,6.46952 -0.416611,2.196501 -1.911293,4.171506 -4.106009,4.550928 -0.988391,0 -1.769719,-1.102582 -1.750835,-2.47072 0.02154,-1.561402 0.435273,-2.623482 1.855369,-4.762947 6.94377,-7.06059 17.471342,-11.54081 25.725142,-12.271341 4.392988,-0.381581 4.833811,-0.697584 7.388162,-5.296186 5.65544,-10.32089 10.67355,-17.317325 14.27131,-27.198806 2.74795,-7.598998 6.65951,-11.946483 9.23203,-10.260906 1.24243,0.814074 1.03959,2.248077 -0.85249,6.02672 -6.42889,11.042496 -12.54051,22.940114 -18.74885,32.827773 -2.05539,3.19377 -1.60474,4.932416 1.55008,5.980279 2.87298,0.954249 6.33098,2.697248 6.69293,3.373555 0.44283,0.82744 -0.23821,1.967878 -1.71206,2.866925 -4.23646,2.058628 -7.05226,-1.391942 -11.54354,-1.492746 -1.05486,0.264752 -2.650593,2.688864 -6.383393,9.697155 -1.482662,2.783687 -3.384403,6.213245 -4.226093,7.621245 -1.511542,2.52854 -4.32736,7.80544 -6.488732,12.16 -2.455767,4.94768 -8.31848,14.74436 -9.409488,15.72338 -0.40225,0.36097 -1.58281,1.25487 -2.623459,1.98646 -2.22889,1.56693 -3.439094,1.7179 -4.219782,0.52642 z M 24.454871,126.24728 C 19.376372,123.57673 7.1090115,105.4452 6.9818059,101.14998 7.017579,98.55792 10.429357,93.44 12.121538,93.44 c 1.005497,0 1.740447,1.122422 1.510846,2.307376 -0.684871,3.53456 -0.645944,3.899987 0.747958,7.021394 2.363044,5.54558 11.261244,20.98166 16.223373,19.96885 2.048508,-0.51414 4.818258,-4.83168 7.341839,-11.44458 0.593251,-1.55459 2.011917,-4.95799 3.152585,-7.56312 6.694428,-19.267121 13.81116,-39.760789 18.427587,-57.878314 3.983597,-13.659042 6.756576,-30.655377 20.941555,-38.186142 2.421075,-1.1880336 6.546281,-1.7874598 8.578694,-1.2465533 2.489196,0.6624759 5.609081,2.5454058 7.371206,4.4487113 4.700039,5.076603 6.328029,9.456211 6.287859,16.915533 -0.0183,3.398229 -1.23774,10.519136 -2.00082,11.683741 -0.68093,1.039229 -1.808086,1.115174 -2.654626,0.178864 -0.547968,-0.606074 -0.611312,-1.228822 -0.62657,-6.16 -0.01997,-6.455908 -0.61992,-9.502667 -2.676729,-13.593454 C 91.94271,15.207312 84.911182,9.7973182 79.894826,12.59095 75.840455,14.966971 70.757393,22.953422 68.60067,30.336212 62.893913,49.460585 56.489871,69.517468 52.019339,83.2 c -2.023233,7.416244 -4.925891,14.645102 -7.538969,21.76 -3.609943,9.86144 -6.84903,16.34451 -9.417882,18.84999 -3.233896,3.15412 -7.296106,4.08748 -10.607617,2.43729 z m 290.927979,-5.79014 c -1.19923,-1.19922 -0.53111,-2.53706 2.79977,-5.60626 1.37345,-1.26555 3.17222,-3.27677 3.99727,-4.46938 7.22454,-10.10734 17.36764,-19.460797 23.60947,-28.82631 5.07144,-7.609416 32.84485,-37.592708 32.00464,-44.283657 -0.62976,-3.607831 -0.67984,-3.264986 0.66535,-4.553895 3.61571,-2.483358 7.95414,-8.457317 12.17971,-8.524316 1.14963,0.719837 0.85389,1.921695 -1.55101,6.303623 -4.03528,9.088241 -31.34658,38.882404 -31.58515,42.740217 -0.0702,1.561512 0.66364,1.154623 2.0171,1.134998 4.3411,-0.639171 8.47486,-2.766281 12.48,-4.548432 1.584,-0.706704 5.256,-2.320726 8.16,-3.586717 2.904,-1.26599 8.54435,-4.017705 12.53411,-6.114921 3.98976,-2.09722 7.79965,-4.041066 8.4664,-4.319661 1.56243,-0.652823 16.84025,-9.882461 18.06672,-10.914461 1.03312,-0.869306 1.25248,-2.007984 0.38685,-2.007984 -1.00605,0 -7.51447,2.27009 -8.75668,3.054266 -0.67536,0.426332 -2.7958,1.55104 -4.71209,2.49935 -1.91632,0.94831 -4.98295,2.740502 -6.81475,3.982653 -3.57747,2.425885 -4.8104,2.934621 -5.57472,2.300281 -1.40448,-1.165612 0.36723,-2.819155 4.77337,-4.455008 1.91907,-0.712486 3.93507,-1.662624 4.48,-2.111417 1.70451,-1.403808 6.02211,-4.187827 8.15312,-5.2572 3.48656,-1.74961 10.63063,-4.381251 13.42413,-4.945011 1.46656,-0.295968 3.3799,-0.819325 4.25187,-1.163018 2.81338,-1.108938 4.76167,-0.592957 4.76167,1.261075 0,1.42673 -5.06701,5.541639 -10.88,8.835632 -1.496,0.847725 -4.016,2.369223 -5.6,3.381107 -1.584,1.011888 -5.43348,3.137127 -8.5544,4.722752 -4.19943,2.177538 -8.82649,4.780967 -12.5656,6.54161 -4.60723,2.163616 -7.55274,3.443024 -15.2,6.602256 -1.32,0.545315 -3.768,1.782147 -5.44,2.748515 -1.672,0.966368 -4.768,2.437111 -6.88,3.26832 -5.06061,1.991677 -6.56039,3.42129 -9.16247,8.733837 -2.22089,4.534208 -2.89132,6.448522 -2.92928,8.363731 -0.0382,1.927885 0.70279,3.035616 2.59872,3.885015 1.48504,1.746647 19.93042,0.167079 27.57943,-3.627517 3.99613,-2.019344 5.7536,-2.059971 5.7536,-0.133008 0,0.891869 -0.97475,1.740851 -3.52,3.065859 -1.144,0.595542 -2.764,1.760646 -3.6,2.589123 -1.22429,1.21328 -1.52,1.719549 -1.52,2.602378 0,2.338955 1.86845,2.480005 7.84112,0.591905 3.97584,-1.256852 4.29645,-1.424446 7.2,-3.76362 3.78169,-3.046612 4.91489,-3.771195 5.9104,-3.075952 2.04663,1.429321 -0.58415,3.810572 -1.39597,4.656192 -3.5296,3.66003 -4.51923,5.51422 -3.49155,6.54189 1.17145,1.17144 3.14656,0.18682 11.53561,-5.750732 4.59235,-3.250339 14.22068,-11.238404 19.92039,-15.774106 6.64998,-5.291902 13.43022,-11.223429 18.09478,-16.9688 4.20672,-5.181444 11.31421,-12.058969 13.2303,-12.756579 0.9384,-0.341641 2.11491,0.599453 2.11491,1.691703 0,1.264678 -3.1143,5.308534 -6.36499,8.264755 -3.16195,2.875552 -5.89542,6.25736 -9.8207,12.150099 -1.66784,2.503782 -3.91635,5.725386 -4.9967,7.159117 -1.87569,2.109434 -2.81069,3.595087 -0.90951,5.777923 0.87024,1.232138 1.15283,2.08881 1.63616,4.96 0.26087,3.062505 1.10428,6.145933 4.2648,7.14196 2.99072,0.83735 5.67437,-0.34894 15.55094,-6.874133 3.256,-2.151158 7.216,-4.632368 8.8,-5.513801 3.54695,-1.973741 10.56698,-4.431504 11.78464,-4.125892 0.94759,0.237828 1.81536,1.643402 1.81536,2.94041 0,2.18631 -1.85878,7.122397 -3.90304,10.36473 -1.4079,2.233046 -1.09408,3.541896 0.84704,3.532746 1.1681,-0.005 6.49293,-2.518298 9.616,-4.537802 1.232,-0.79666 3.87792,-2.682013 5.87984,-4.189677 4.06637,-3.062435 6.91754,-4.707901 8.15757,-4.707901 0.95479,0 1.92711,1.223184 1.61626,2.033235 -0.11047,0.287879 -1.74106,1.660487 -3.62352,3.05024 -3.63978,2.68713 -5.47015,4.50193 -5.47015,5.423661 0,1.393034 1.42053,1.48699 4.48,0.843664 5.36964,-1.129092 10.85538,-2.113139 16.16,-3.033952 4.53085,-0.781638 10.0937,-2.294595 12.42115,-3.378243 1.67018,-0.777629 2.9601,-0.968282 3.61095,-0.533706 0.65984,0.440592 1.01747,1.501319 0.74729,2.216445 -0.3342,0.884582 -1.12748,1.386144 -4.17494,2.639603 -2.05878,0.846803 -2.81373,1.390378 -4.88,3.513663 -2.64042,2.71326 -2.99405,3.6287 -1.6401,4.2456 1.07482,0.48971 4.53389,-0.79125 11.83565,-4.382965 4.3393,-2.134483 6.15223,-3.239907 8.96,-5.463306 7.45053,-5.899856 18.83095,-18.306656 26.28992,-28.660976 5.34958,-6.847667 10.58886,-14.596994 15.17155,-21.455561 3.97714,-5.632665 7.82678,-13.268776 11.78551,-17.504975 3.01049,-3.206445 4.72118,-3.986829 5.8583,-2.672427 1.35427,1.56542 0.92704,3.157472 -2.07776,7.742396 -1.26912,1.936551 -2.85088,4.352737 -3.51501,5.369303 C 589.1539,56.035617 575.16054,70.29297 562.56799,86.56 c -2.69994,3.487778 -7.86147,7.538348 -8.328,12.01599 0,2.17354 1.47469,2.44609 6.07466,1.122714 1.616,-0.464912 3.6103,-0.977686 4.43177,-1.139498 0.82148,-0.161808 3.22157,-0.658684 5.33357,-1.104166 5.09187,-1.074022 10.69703,-1.158022 11.68,-0.17504 1.08653,1.086518 0.80102,2.033088 -1.37225,4.54978 -3.34244,3.87056 -3.42775,4.01405 -3.42775,5.76538 0,1.70964 0.49047,2.37732 3.3152,4.51298 1.00775,0.76192 1.18535,1.07107 1.10298,1.92 -0.14458,1.49016 -1.62608,2.13268 -4.89818,2.12433 -3.7065,-0.18062 -7.01988,-1.44736 -7.84,-5.10457 0,-1.34608 2.21827,-5.07925 4.15437,-6.99147 2.03776,-2.0126 2.38301,-2.98913 1.26781,-3.58597 -0.92797,-0.49663 -3.74759,-0.0969 -7.10695,1.00747 -1.54262,0.50714 -3.05462,0.92391 -3.36,0.92616 -0.30537,0.002 -1.66163,0.35745 -3.01388,0.78935 -4.08539,1.02275 -14.59815,5.64849 -14.3809,-1.38778 0.0825,-2.75079 -0.62195,-2.851362 -4.15462,-0.59312 -0.94919,0.60678 -3.30983,1.89443 -5.24583,2.86143 -8.19033,4.09097 -13.64848,6.00603 -17.11792,6.00603 -1.39846,0 -1.79452,-0.14323 -2.58668,-0.93539 -0.52096,-0.52096 -0.9354,-1.28014 -0.9354,-1.71353 0,-0.42798 0.57245,-1.91083 1.27213,-3.29524 1.13421,-2.24418 1.22455,-2.5875 0.83303,-3.16647 -0.6626,-0.979792 -3.74087,-0.78394 -9.23194,0.58739 -9.67354,2.41583 -14.57357,3.43036 -15.48739,3.20656 -1.71694,-0.62949 -3.12325,-1.51395 -4.86967,-2.04332 -0.39164,0 -2.23321,0.66236 -4.09241,1.4719 -5.73322,2.49642 -10.05546,2.76368 -11.76864,0.72771 -1.0809,-1.28459 -1.02893,-2.04757 0.28163,-4.13377 3.67859,-5.85569 5.62326,-9.241523 5.62326,-9.790474 0,-0.345052 -0.1728,-0.800166 -0.384,-1.011366 -1.09635,-1.096365 -3.25788,0.01901 -14.016,7.232458 -10.82963,7.261392 -16.59561,9.709172 -21.73948,9.228832 -2.8456,-0.26573 -4.11133,0.19941 -6.82554,2.50827 -2.90886,2.47445 -4.60297,3.6246 -7.43497,5.0477 -3.30656,1.66158 -4.62964,1.99741 -6.03799,1.53261 -2.91718,-0.96276 -2.79997,-3.56265 0.37133,-8.23778 0.69248,-1.02085 1.7305,-2.79209 2.30666,-3.93609 0.57616,-1.144 1.6198,-2.92357 2.31923,-3.954605 1.55853,-2.297552 6.00077,-11.011347 6.00077,-11.770969 0,-0.974208 -1.21824,-1.045095 -2.50173,-0.145565 -8.23844,6.18235 -15.65805,12.796499 -24.49264,18.553249 -5.70899,3.68166 -10.35536,5.58615 -12.60077,5.16491 -1.55667,-0.29204 -2.89606,-1.70399 -3.15552,-3.32652 -0.41097,-2.57014 -0.94419,-2.7298 -5.64377,-1.68974 -5.09879,1.1284 -7.65472,0.82814 -9.15184,-1.07514 -0.8665,-1.10156 -0.87748,-2.21886 -0.0405,-4.11114 0.98327,-2.162679 -0.25208,-2.815193 -1.72435,-2.657658 -7.41468,-0.0376 -23.79725,6.703748 -25.4858,-4.663251 -0.25969,-1.748193 1.39754,-5.930403 3.11332,-9.232333 1.51609,-2.917616 1.70947,-3.484864 1.39097,-4.08 -0.74265,-1.387641 -2.02589,-0.562467 -4.53446,2.915844 -6.29975,7.703741 -12.95998,16.486456 -19.06419,23.006518 -2.64701,2.81763 -3.13715,3.64975 -3.45536,5.8664 -0.2017,1.405 -0.4505,1.80809 -2.04154,3.30743 -2.43715,2.29667 -6.7755,5.49257 -7.45602,5.49257 -0.30258,0 -0.77642,-0.22628 -1.05299,-0.50286 z m 116.6195,-13.14693 c 2.86148,-2.49257 3.51764,-3.45265 3.51764,-5.14692 0,-1.05166 -0.1922,-1.58458 -0.78544,-2.177834 -1.95492,-1.923142 -3.65224,1.413174 -4.18269,2.539924 -0.5777,1.25104 -1.42419,2.7706 -1.88112,3.37679 -0.78343,1.03939 -1.09011,2.53179 -0.61741,3.0045 0.6479,0.6479 2,0.10129 3.94902,-1.59646 z M 563.13806,61.818176 c -1.10995,-0.848003 -2.29177,-2.043158 -2.62627,-2.655898 -0.54282,-0.994336 -0.56,-1.215548 -0.16,-2.058176 0.89206,-1.879088 6.89085,-3.14143 8.28819,-1.744102 0.71047,0.710451 0.76535,1.443907 0.33229,4.439437 -0.57178,3.955126 -2.44931,4.604793 -5.83421,2.018739 z"/>
</svg>